<svg xmlns="http://www.w3.org/2000/svg" xmlns:xlink="http://www.w3.org/1999/xlink" viewBox="9 6 38 38">
  <defs>
    <filter id="Rectangle_34" x="0" y="0" width="56" height="56" filterUnits="userSpaceOnUse">
      <feOffset dy="3" input="SourceAlpha"/>
      <feGaussianBlur stdDeviation="3" result="blur"/>
      <feFlood flood-opacity="0.365"/>
      <feComposite operator="in" in2="blur"/>
      <feComposite in="SourceGraphic"/>
    </filter>
  </defs>
  <g id="Group_200" data-name="Group 200" transform="translate(82 75) rotate(180)">
    <g transform="matrix(1, 0, 0, 1, 26, 25)" filter="url(#Rectangle_34)">
      <rect id="Rectangle_34-2" data-name="Rectangle 34" width="38" height="38" rx="16" transform="translate(47 44) rotate(180)" fill="#AFAFAF"/>
    </g>
    <path id="Icon_ionic-md-arrow-round-back" data-name="Icon ionic-md-arrow-round-back" d="M22.122,13.207H11.138L15.4,9.131a1.7,1.7,0,0,0,0-2.32,1.518,1.518,0,0,0-2.217,0L6.087,13.689a1.563,1.563,0,0,0-.462,1.15v.021a1.563,1.563,0,0,0,.462,1.15l7.089,6.878a1.518,1.518,0,0,0,2.217,0,1.7,1.7,0,0,0,0-2.32l-4.26-4.076H22.117a1.607,1.607,0,0,0,1.571-1.643A1.59,1.59,0,0,0,22.122,13.207Z" transform="translate(39.344 34.67)" fill="#fffdfd"/>
  </g>
</svg>